<svg id="Layer_1" data-name="Layer 1" xmlns="http://www.w3.org/2000/svg" viewBox="0 0 3000 3000"><defs><style>.cls-1{fill:#b0b2b4;}.cls-2{fill:#87898c;}.cls-3{fill:#fff;}</style></defs><rect width="3000" height="3000"/><rect class="cls-1" x="410.44098" y="417.19444" width="2070.0915" height="2070.0915" rx="448.00086" transform="translate(321.73992 -261.12683) rotate(11.60678)"/><rect class="cls-2" x="438.16498" y="444.91844" width="2014.6435" height="2014.6435" rx="436.00103" transform="translate(169.45208 -150.93448) rotate(6.3487)"/><rect class="cls-3" x="468.22088" y="474.97434" width="1954.53169" height="1954.53169" rx="422.99187"/><path d="M1268.545,1170.37055h.00021A104.92782,104.92782,0,0,1,1373.473,1275.29837v.00023a104.92788,104.92788,0,0,1-104.92788,104.92788h-.00021a104.92783,104.92783,0,0,1-104.92783-104.92783v-.00021A104.92789,104.92789,0,0,1,1268.545,1170.37055Z"/><path d="M1646.28563,1170.37055h.00021a104.92782,104.92782,0,0,1,104.92782,104.92782v.00023a104.92788,104.92788,0,0,1-104.92788,104.92788h-.00021a104.92783,104.92783,0,0,1-104.92783-104.92783v-.00021a104.92789,104.92789,0,0,1,104.92789-104.92789Z"/><path d="M1940.08394,1212.34176h.00013a62.95664,62.95664,0,0,1,62.95664,62.95664v.00023a62.95664,62.95664,0,0,1-62.95664,62.95664h-.00013a62.95669,62.95669,0,0,1-62.95669-62.95669v-.00013a62.95669,62.95669,0,0,1,62.95669-62.95669Z"/><rect x="2128.95428" y="1254.31293" width="41.97112" height="41.97114" rx="20.98554"/><path d="M1940.08394,1548.11122h.00013a62.95664,62.95664,0,0,1,62.95664,62.95664v.00023a62.95664,62.95664,0,0,1-62.95664,62.95664h-.00013a62.95669,62.95669,0,0,1-62.95669-62.95669v-.00013a62.95669,62.95669,0,0,1,62.95669-62.95669Z"/><path d="M2149.93982,1590.08238h0a20.98554,20.98554,0,0,1,20.98554,20.98554v.00007a20.98553,20.98553,0,0,1-20.98553,20.98553h0a20.98555,20.98555,0,0,1-20.98555-20.98555v0a20.98554,20.98554,0,0,1,20.98554-20.98554Z"/><path d="M974.74672,1548.11122h.00013a62.95664,62.95664,0,0,1,62.95664,62.95664v.00023a62.95664,62.95664,0,0,1-62.95664,62.95664h-.00013A62.95669,62.95669,0,0,1,911.79,1611.068v-.00013a62.95669,62.95669,0,0,1,62.95669-62.95669Z" transform="translate(1949.49351 3222.13594) rotate(180)"/><path d="M764.89087,1590.08242h0a20.98553,20.98553,0,0,1,20.98553,20.98553v.00008a20.98553,20.98553,0,0,1-20.98553,20.98553h0a20.98555,20.98555,0,0,1-20.98555-20.98555v0a20.98555,20.98555,0,0,1,20.98555-20.98555Z" transform="translate(1529.78177 3222.13598) rotate(180)"/><path d="M974.74672,1212.34176h.00013a62.95664,62.95664,0,0,1,62.95664,62.95664v.00023a62.95664,62.95664,0,0,1-62.95664,62.95664h-.00013A62.95669,62.95669,0,0,1,911.79,1275.29858v-.00013a62.95669,62.95669,0,0,1,62.95669-62.95669Z" transform="translate(1949.49351 2550.59703) rotate(-180)"/><path d="M764.89087,1254.313h0a20.98553,20.98553,0,0,1,20.98553,20.98553v.00008a20.98553,20.98553,0,0,1-20.98553,20.98553h0a20.98555,20.98555,0,0,1-20.98555-20.98555v0A20.98555,20.98555,0,0,1,764.89087,1254.313Z" transform="translate(1529.78177 2550.59707) rotate(180)"/><path d="M1646.28562,918.54342h.00013a62.95666,62.95666,0,0,1,62.95666,62.95666v.00019a62.95665,62.95665,0,0,1-62.95665,62.95665h-.00013a62.95668,62.95668,0,0,1-62.95668-62.95668v-.00016A62.95667,62.95667,0,0,1,1646.28562,918.54342Z" transform="translate(664.78551 2627.78585) rotate(-90)"/><path d="M1646.28565,750.65873h0a20.98553,20.98553,0,0,1,20.98553,20.98553v.00008a20.98553,20.98553,0,0,1-20.98553,20.98553h0a20.98555,20.98555,0,0,1-20.98555-20.98555v0A20.98555,20.98555,0,0,1,1646.28565,750.65873Z" transform="translate(874.64136 2417.92996) rotate(-90)"/><path d="M1268.545,918.54342h.00013a62.95666,62.95666,0,0,1,62.95666,62.95666v.0002a62.95664,62.95664,0,0,1-62.95664,62.95664h-.00013a62.95669,62.95669,0,0,1-62.95669-62.95669v-.00015A62.95667,62.95667,0,0,1,1268.545,918.54342Z" transform="translate(287.04488 2250.04522) rotate(-90)"/><path d="M1268.545,750.65873h0a20.98553,20.98553,0,0,1,20.98553,20.98553v.00008a20.98553,20.98553,0,0,1-20.98553,20.98553h0a20.98555,20.98555,0,0,1-20.98555-20.98555v0a20.98555,20.98555,0,0,1,20.98555-20.98555Z" transform="translate(496.90073 2040.18932) rotate(-90)"/><path d="M1268.54493,1841.90951h.00013a62.95662,62.95662,0,0,1,62.95662,62.95662v.00023A62.95666,62.95666,0,0,1,1268.545,1967.823h-.00013a62.95667,62.95667,0,0,1-62.95667-62.95667v-.00013a62.95671,62.95671,0,0,1,62.95671-62.95671Z" transform="translate(3173.41122 636.32132) rotate(90)"/><path d="M1268.545,2093.73657h0a20.98552,20.98552,0,0,1,20.98552,20.98552v.00008a20.98554,20.98554,0,0,1-20.98554,20.98554h0a20.98554,20.98554,0,0,1-20.98554-20.98554v0a20.98556,20.98556,0,0,1,20.98556-20.98556Z" transform="translate(3383.26717 846.1771) rotate(90)"/><path d="M1646.28551,1841.90939h.00013a62.95669,62.95669,0,0,1,62.95669,62.95669v.00019a62.95663,62.95663,0,0,1-62.95663,62.95663h-.00013a62.9567,62.9567,0,0,1-62.9567-62.9567v-.00016a62.95665,62.95665,0,0,1,62.95665-62.95665Z" transform="translate(3551.15173 258.58055) rotate(90)"/><path d="M1646.28565,2093.73644h0a20.98555,20.98555,0,0,1,20.98555,20.98555v.00006a20.98553,20.98553,0,0,1-20.98553,20.98553h0a20.98555,20.98555,0,0,1-20.98555-20.98555v-.00005a20.98553,20.98553,0,0,1,20.98553-20.98553Z" transform="translate(3761.00769 468.43634) rotate(90)"/><path d="M1268.545,1506.14h.00023A104.92784,104.92784,0,0,1,1373.473,1611.06785v.00021a104.92788,104.92788,0,0,1-104.92788,104.92788h-.00021a104.92783,104.92783,0,0,1-104.92783-104.92783v-.00025A104.92786,104.92786,0,0,1,1268.545,1506.14Z"/><path d="M1646.28559,1506.14h.00023a104.92784,104.92784,0,0,1,104.92784,104.92784v.00021a104.92788,104.92788,0,0,1-104.92788,104.92788h-.00021a104.92783,104.92783,0,0,1-104.92783-104.92783v-.00025A104.92786,104.92786,0,0,1,1646.28559,1506.14Z"/></svg>